# xmcd CD database file
# Copyright (C) 1995-1998 Ti Kan
#
# Track frame offsets:
#	150
#	22726
#	39795
#	53664
#	71656
#	83024
#	99184
#	112363
#	123229
#	133984
#
# Disc length: 1929 seconds
#
# Revision: 2
# Processed by: cddbd v1.5.1PL0 Copyright (c) Steve Scherf et al.
# Submitted via: CDex 1.30Release
#
DISCID=7a07870a
DTITLE=Big Joe Shelton - Big Joe Shelton
DYEAR=2004
DGENRE=Blues
TTITLE0=Mississippi Night
TTITLE1=Devil Lives In Memphis
TTITLE2=Ain't Nothing Can Save It
TTITLE3=Women And Whiskey
TTITLE4=Ears Like A Mule
TTITLE5=Be A Woman
TTITLE6=Can't Come Back
TTITLE7=Ribs And Cat Whiskey
TTITLE8=Leaving Your Behind
TTITLE9=What Else Can It Be
EXTD=YEAR: 2004 ID3G:   0
EXTT0=
EXTT1=
EXTT2=
EXTT3=
EXTT4=
EXTT5=
EXTT6=
EXTT7=
EXTT8=
EXTT9=
PLAYORDER=
